<?xml version="1.0" encoding="UTF-8"?>
<svg id="Layer_1" data-name="Layer 1" xmlns="http://www.w3.org/2000/svg" viewBox="0 0 200 200">
  <rect width="200" height="200" style="fill: #5277c3; stroke-width: 0px;"/>
  <path d="M180.64,83.32v6.23h-9.59v48.8h-6.9v-48.8h-23.49v48.8h-37.2v-55.03h30.01v-17.26h-31.45v-6.23h38.64v23.49h23.49v-26.36h6.9v26.36h9.59ZM133.48,89.55h-22.82v42.57h22.82v-42.57Z" style="fill: #fff; stroke-width: 0px;"/>
  <path d="M75.76,93.62c0-16.48-5.02-21.19-20.4-21.19-8,0-15.85,3.3-19.31,5.49v57.29c0,1.88-1.41,3.14-3.14,3.14s-3.14-1.26-3.14-3.14v-64.82c0-1.73,1.26-3.14,2.98-3.14,1.88,0,2.98,1.41,2.98,3.14v1.88c3.92-2.35,11.61-5.96,20.72-5.96,18.68,0,25.58,7.22,25.58,26.68v42.22c0,1.88-1.41,3.14-3.14,3.14s-3.14-1.26-3.14-3.14v-41.59Z" style="fill: #fff; stroke-width: 0px;"/>
</svg>