<?xml version="1.0" encoding="UTF-8"?>
<svg id="Layer_1" data-name="Layer 1" xmlns="http://www.w3.org/2000/svg" viewBox="0 0 300 90">
  <g>
    <path fill="#ffffff" d="M44.95,47.44c0-8.76-2.67-11.27-10.85-11.27-4.26,0-8.43,1.75-10.27,2.92v30.46c0,1-.75,1.67-1.67,1.67s-1.67-.67-1.67-1.67v-34.47c0-.92.67-1.67,1.59-1.67,1,0,1.59.75,1.59,1.67v1c2.09-1.25,6.18-3.17,11.02-3.17,9.93,0,13.6,3.84,13.6,14.19v22.45c0,1-.75,1.67-1.67,1.67s-1.67-.67-1.67-1.67v-22.12Z" style="stroke-width: 0px;"/>
    <path fill="#ffffff" d="M61.64,19.06c0-1,.75-1.67,1.67-1.67s1.67.67,1.67,1.67v3c0,1-.75,1.67-1.67,1.67s-1.67-.67-1.67-1.67v-3ZM61.64,35.09c0-1,.75-1.67,1.67-1.67s1.67.67,1.67,1.67v34.47c0,1-.75,1.67-1.67,1.67s-1.67-.67-1.67-1.67v-34.47Z" style="stroke-width: 0px;"/>
    <path fill="#ffffff" d="M86.26,50.86c-5.34-6.93-9.93-12.44-11.52-14.11-.67-.75-1-1.17-1-1.75,0-.92.75-1.59,1.59-1.59.5,0,.92.17,1.42.67,1.25,1.17,6.01,6.93,11.52,14.19l9.77-13.69c.58-.83,1.08-1.17,1.75-1.17.92,0,1.67.67,1.67,1.59,0,.5-.33,1.08-.83,1.75l-10.27,14.11c4.34,5.67,8.26,11.35,11.69,17.28.38.63.58,1.08.58,1.5,0,.92-.83,1.59-1.67,1.59s-1.25-.58-1.67-1.25c-3.34-5.76-7.34-11.43-11.02-16.28l-11.52,16.28c-.63.88-1.08,1.25-1.75,1.25-.92,0-1.67-.67-1.67-1.59,0-.42.17-.83.58-1.42l12.35-17.36Z" style="stroke-width: 0px;"/>
    <path fill="#ffffff" d="M110.97,67.22c0-1,.75-1.67,1.67-1.67s1.67.67,1.67,1.67v2.84c0,1-.75,1.67-1.67,1.67s-1.67-.67-1.67-1.67v-2.84Z" style="stroke-width: 0px;"/>
  </g>
  <g>
    <path fill="#ffffff" d="M172.75,38.52v3.72h-5.73v29.16h-4.12v-29.16h-14.03v29.16h-22.23v-32.88h17.93v-10.31h-18.79v-3.72h23.08v14.03h14.03v-15.75h4.12v15.75h5.73ZM144.56,42.24h-13.63v25.43h13.63v-25.43Z" style="stroke-width: 0px;"/>
    <path fill="#ffffff" d="M230.02,67.68v3.72h-15.75v-29.16h-26.92v29.16h-4.3V22.77h4.3v15.75h31.22v29.16h11.46Z" style="stroke-width: 0px;"/>
    <path fill="#ffffff" d="M244.57,31.47v39.93h-4.18V31.47h-4.58v-3.72h4.58v-4.98h4.18v4.98h38.21v3.72h-38.21ZM282.78,48.26h-3.44v23.14h-28.07v-26.87h23.94v-8.88h4.12v8.88h3.44v3.72ZM275.45,48.26h-19.65v19.42h19.65v-19.42Z" style="stroke-width: 0px;"/>
  </g>
</svg>
